# xmcd
#
# Track frame offsets:
#        150
#        16835
#        32995
#        49488
#        61308
#        82525
#        107065
#        120780
#        146785
#        162415
#        183598
#
# Disc length: 2693 seconds
#
# Revision: 0
# Processed by: cddbd v1.5.1PL2 Copyright (c) Steve Scherf et al.
# Submitted via: ExactAudioCopy v0.95a5
#
DISCID=8b0a830b
DTITLE=THE COLTS - It's Only Entertainment
DYEAR=1996
DGENRE=Rock
TTITLE0=La Boom
TTITLE1=Slapstick
TTITLE2=Room No.502
TTITLE3=Mamma Mia
TTITLE4=World Is Yours
TTITLE5=Big Nothing
TTITLE6=(Working for a)Wacky Race
TTITLE7=I Clowns
TTITLE8=Hard Luck
TTITLE9=1.000.000 Dollers
TTITLE10=It's Only Entertainment(but i like it)
EXTD=
EXTT0=
EXTT1=
EXTT2=
EXTT3=
EXTT4=
EXTT5=
EXTT6=
EXTT7=
EXTT8=
EXTT9=
EXTT10=
PLAYORDER=
